<svg width="48" height="48" viewBox="0 0 48 48" fill="none" xmlns="http://www.w3.org/2000/svg">
<path d="M44 15.4C44 14.2 43.2 13 42.4 12.4L29.8 4.60005C29.2818 4.3055 28.696 4.15063 28.1 4.15063C27.504 4.15063 26.9182 4.3055 26.4 4.60005L5.8 16.6C4.8 17 4 18.2 4 19.4V32.6C4 33.6 4.8 35 5.6 35.6L18.2 43.4001C18.7182 43.6946 19.304 43.8495 19.9 43.8495C20.496 43.8495 21.0818 43.6946 21.6 43.4001L42.2 31.4C43.2 30.8 44 29.4 44 28.4V15.4Z" stroke="white" stroke-width="2" stroke-linecap="round" stroke-linejoin="round"/>
<path d="M20 43.7999V28L4.19995 18.2" stroke="white" stroke-width="2" stroke-linecap="round" stroke-linejoin="round"/>
<path d="M20 28L43.8 14.2" stroke="white" stroke-width="2" stroke-linecap="round" stroke-linejoin="round"/>
<path d="M28 39.6V23.4" stroke="white" stroke-width="2" stroke-linecap="round" stroke-linejoin="round"/>
<path d="M36 35V18.8" stroke="white" stroke-width="2" stroke-linecap="round" stroke-linejoin="round"/>
</svg>
