<svg width="509" height="287" viewBox="0 0 509 287" fill="none" xmlns="http://www.w3.org/2000/svg">
<rect width="509" height="286.199" rx="20" fill="#FDFDFD"/>
<path d="M184.135 85.0014C184.135 88.3884 184.387 91.6915 184.863 94.9387L186.71 66.3584C185.031 72.2928 184.135 78.5351 184.135 85.0014Z" fill="#8D5219"/>
<path d="M310.059 120.692C316.329 110.279 319.939 98.1018 319.939 85.0853C319.939 79.4868 319.268 74.0563 318.008 68.8217C314.649 80.7465 312.634 94.0429 311.291 106.667C310.815 111.342 310.395 116.017 310.059 120.692Z" fill="#A9BF16"/>
<path d="M238.742 48.3873L235.943 95.2746C239.638 104.596 243.333 113.89 247.195 123.015L247.587 26.0213C247.587 22.6902 247.755 19.3871 248.035 16.196C244.48 16.4479 240.981 17.0078 237.595 17.7916C238.686 27.4209 239.106 37.7781 238.742 48.3873Z" fill="#1F2618"/>
<path d="M216.127 68.1219C216.547 62.1035 216.799 56.0012 216.911 49.8429C214.252 43.9365 211.481 38.086 208.654 32.2636C207.171 33.5233 205.743 34.8109 204.372 36.1825C204.148 36.4065 203.896 36.6584 203.672 36.9104L203.98 50.3187C208.262 59.3883 212.265 68.5698 215.427 76.6036C215.679 73.8324 215.903 70.9771 216.127 68.1219Z" fill="#6E8D2C"/>
<path d="M203.952 50.3467C202.524 47.3515 201.097 44.3563 199.641 41.4171C193.736 48.6672 189.257 57.1489 186.654 66.4144L184.807 94.9946C186.99 110.083 194.044 123.631 204.316 133.904C204.596 134.184 204.903 134.464 205.183 134.744C205.379 133.96 205.575 133.148 205.771 132.365L203.952 50.3467Z" fill="#8D5219"/>
<path d="M203.644 36.9384C202.244 38.366 200.929 39.8776 199.641 41.4171C201.097 44.3563 202.524 47.3515 203.951 50.3467L203.644 36.9384Z" fill="#8D5219"/>
<path d="M216.687 26.4132C216.939 34.3071 217.023 42.1449 216.911 49.8429C216.799 56.0012 216.547 62.1035 216.127 68.1219C215.931 70.9771 215.68 73.8044 215.4 76.6316C213.552 95.7505 210.166 114.253 205.799 132.337L205.855 135.332C212.517 141.602 220.438 146.585 229.198 149.832C229.198 142.302 229.226 134.744 229.282 127.158C229.422 111.818 229.702 96.3663 230.122 80.7745C230.206 77.3314 230.29 73.8884 230.402 70.4173C230.934 53.3419 231.549 36.2665 232.193 19.1912C226.735 20.9827 221.501 23.418 216.687 26.4132Z" fill="#A9BF16"/>
<path d="M205.799 132.365C205.603 133.148 205.407 133.96 205.211 134.744C205.435 134.94 205.631 135.164 205.855 135.36L205.799 132.365Z" fill="#415925"/>
<path d="M280.334 79.8507C278.851 103.952 276.052 126.934 272.273 149.916C272.273 150.196 272.273 150.476 272.273 150.756C280.642 148.04 288.283 143.757 294.917 138.271C292.874 117.501 291.866 96.3662 291.922 75.232C291.978 60.312 292.762 45.3361 293.125 30.4161C290.047 28.0087 286.744 25.8813 283.273 24.0338C282.238 42.6488 281.454 61.2637 280.334 79.8507Z" fill="#8D5219"/>
<path d="M300.57 97.7939C299.787 111.062 298.583 123.855 296.988 136.479C297.911 135.64 298.835 134.772 299.731 133.904C303.705 129.929 307.176 125.506 310.087 120.664C310.423 115.989 310.842 111.314 311.318 106.639C312.662 94.0149 314.677 80.7185 318.036 68.7937C315.013 56.2531 308.575 45.0281 299.731 36.1825C299.619 36.0706 299.507 35.9586 299.395 35.8466C301.634 55.8612 301.802 77.1914 300.57 97.7939Z" fill="#6E8D2C"/>
<path d="M273.225 93.4271C274.036 70.6412 274.736 45.7 278.599 21.7665C270.79 18.3514 262.225 16.3359 253.24 16.028C257.159 41.2772 254.276 68.1499 251.953 93.5111C250.945 104.428 249.882 115.345 248.594 126.234C252.541 135.472 256.739 144.513 261.357 153.303C265.052 152.743 268.663 151.903 272.161 150.784C272.217 150.476 272.273 150.196 272.301 149.888C272.217 131.105 272.525 112.266 273.225 93.4271Z" fill="#415925"/>
<path d="M248.567 126.262C248.091 125.17 247.643 124.079 247.195 123.015C243.333 113.862 239.638 104.596 235.944 95.2745C234.04 90.4598 232.109 85.6451 230.15 80.8304C229.73 96.4222 229.45 111.874 229.31 127.214C230.57 133.736 231.745 140.258 232.837 146.809C233.089 148.32 233.341 149.832 233.592 151.343C237.231 152.407 240.954 153.219 244.816 153.667C245.656 148.404 246.411 143.114 247.111 137.795C246.411 143.086 245.656 148.376 244.816 153.667C245.544 153.751 246.3 153.807 247.027 153.891C248.679 154.031 250.33 154.143 251.981 154.171C255.144 154.115 258.223 153.835 261.274 153.387C256.712 144.541 252.513 135.5 248.567 126.262Z" fill="#6E8D2C"/>
<path d="M272.105 148.292C272.161 148.264 272.189 148.264 272.245 148.236C272.245 147.956 272.245 147.676 272.245 147.396C272.217 147.704 272.161 148.012 272.105 148.292Z" fill="#6E8D2C"/>
<path d="M411.688 192.968V201.226H398.141V215.922H388.96V201.226H375.414V192.968H388.96V178.272H398.141V192.968H411.688Z" fill="#415A25"/>
<path d="M97.3125 216.482V178.132H123.091V184.654H104.786V194.536H120.012V200.582H104.786V216.454H97.3125V216.482Z" fill="#1C2619"/>
<path d="M128.296 216.482V178.132H135.742V209.96H155.306V216.482H128.296Z" fill="#1C2619"/>
<path d="M175.347 216.762C172.548 216.762 170.001 216.23 167.706 215.138C165.41 214.046 163.451 212.591 161.828 210.743C160.176 208.896 158.917 206.796 158.021 204.473C157.126 202.15 156.678 199.77 156.678 197.307C156.678 194.76 157.154 192.296 158.105 189.973C159.057 187.65 160.372 185.578 162.052 183.759C163.731 181.939 165.718 180.512 167.985 179.448C170.281 178.384 172.772 177.852 175.514 177.852C178.285 177.852 180.804 178.412 183.1 179.532C185.395 180.651 187.354 182.135 188.949 184.011C190.573 185.886 191.832 187.985 192.728 190.281C193.624 192.576 194.071 194.956 194.071 197.419C194.071 199.938 193.596 202.374 192.672 204.697C191.748 207.02 190.433 209.092 188.753 210.911C187.074 212.731 185.087 214.158 182.82 215.194C180.553 216.23 178.062 216.762 175.347 216.762ZM164.235 197.307C164.235 198.959 164.487 200.554 164.991 202.122C165.494 203.661 166.222 205.061 167.174 206.265C168.125 207.468 169.301 208.42 170.672 209.12C172.044 209.82 173.639 210.183 175.403 210.183C177.194 210.183 178.817 209.82 180.217 209.064C181.616 208.336 182.792 207.328 183.715 206.097C184.639 204.865 185.367 203.465 185.843 201.926C186.318 200.386 186.57 198.847 186.57 197.307C186.57 195.655 186.318 194.06 185.787 192.52C185.255 190.981 184.527 189.609 183.575 188.405C182.624 187.202 181.448 186.25 180.077 185.55C178.677 184.85 177.138 184.486 175.403 184.486C173.555 184.486 171.96 184.85 170.56 185.606C169.161 186.362 168.013 187.314 167.09 188.545C166.166 189.777 165.438 191.149 164.963 192.66C164.487 194.172 164.235 195.739 164.235 197.307Z" fill="#1C2619"/>
<path d="M199.837 216.482V178.132H216.798C218.562 178.132 220.185 178.496 221.697 179.224C223.18 179.952 224.495 180.903 225.587 182.135C226.679 183.367 227.546 184.738 228.134 186.25C228.722 187.762 229.03 189.301 229.03 190.897C229.03 192.52 228.75 194.088 228.19 195.571C227.63 197.055 226.819 198.371 225.783 199.49C224.747 200.61 223.516 201.478 222.116 202.094L230.877 216.51H222.676L214.783 203.661H207.338V216.51H199.837V216.482ZM207.282 197.083H216.63C217.554 197.083 218.394 196.803 219.122 196.243C219.849 195.683 220.409 194.928 220.857 194.004C221.305 193.08 221.501 192.016 221.501 190.869C221.501 189.637 221.249 188.573 220.745 187.65C220.241 186.726 219.597 185.998 218.842 185.466C218.058 184.934 217.218 184.654 216.323 184.654H207.31V197.083H207.282Z" fill="#1C2619"/>
<path d="M262.365 209.96V216.482H235.747V178.132H261.889V184.654H243.192V193.892H259.342V199.938H243.192V209.932H262.365V209.96Z" fill="#1C2619"/>
<path d="M291.054 188.181C290.802 187.929 290.354 187.594 289.683 187.146C289.011 186.726 288.199 186.306 287.248 185.914C286.296 185.522 285.26 185.158 284.141 184.85C283.021 184.542 281.902 184.402 280.726 184.402C278.711 184.402 277.199 184.766 276.164 185.522C275.128 186.278 274.624 187.342 274.624 188.685C274.624 189.721 274.96 190.561 275.604 191.149C276.248 191.736 277.227 192.268 278.515 192.716C279.802 193.164 281.426 193.612 283.385 194.116C285.904 194.732 288.087 195.459 289.935 196.355C291.782 197.223 293.209 198.371 294.189 199.798C295.169 201.226 295.672 203.073 295.672 205.425C295.672 207.468 295.309 209.204 294.525 210.659C293.769 212.115 292.733 213.291 291.39 214.186C290.047 215.082 288.535 215.726 286.856 216.146C285.176 216.566 283.357 216.762 281.454 216.762C279.551 216.762 277.647 216.566 275.716 216.174C273.813 215.782 271.965 215.222 270.202 214.466C268.439 213.738 266.815 212.843 265.332 211.779L268.635 205.341C268.971 205.677 269.53 206.097 270.37 206.6C271.21 207.132 272.217 207.636 273.393 208.168C274.568 208.7 275.884 209.12 277.283 209.484C278.683 209.848 280.11 210.016 281.538 210.016C283.553 210.016 285.092 209.68 286.128 209.008C287.164 208.336 287.695 207.384 287.695 206.125C287.695 204.977 287.276 204.081 286.464 203.437C285.624 202.793 284.477 202.234 282.993 201.73C281.51 201.254 279.774 200.722 277.759 200.134C275.352 199.462 273.337 198.679 271.714 197.839C270.09 196.999 268.887 195.935 268.103 194.648C267.319 193.36 266.927 191.736 266.927 189.805C266.927 187.174 267.543 184.99 268.803 183.227C270.034 181.463 271.714 180.12 273.841 179.196C275.968 178.272 278.319 177.824 280.922 177.824C282.713 177.824 284.421 178.02 286.016 178.412C287.611 178.804 289.123 179.336 290.522 179.98C291.922 180.623 293.181 181.323 294.301 182.079L291.054 188.181Z" fill="#1C2619"/>
<path d="M330.015 184.682H317.756V216.51H310.367V184.682H298.107V178.16H330.043V184.682H330.015Z" fill="#1C2619"/>
<path d="M341.631 178.132H349.188L363.294 216.482H355.625L352.435 206.908H338.356L335.165 216.482H327.496L341.631 178.132ZM350.671 201.674L345.409 185.858L340.119 201.674H350.671Z" fill="#1C2619"/>
<path d="M92.4702 238.764C91.9384 238.148 91.2947 237.616 90.567 237.112C89.8392 236.636 89.0275 236.216 88.1319 235.852C87.2362 235.489 86.2566 235.209 85.249 234.985C84.2134 234.761 83.1218 234.649 81.9742 234.649C78.6155 234.649 76.1805 235.293 74.6131 236.552C73.0457 237.812 72.262 239.575 72.262 241.759C72.262 243.27 72.6258 244.446 73.3815 245.314C74.1373 246.182 75.2848 246.882 76.8802 247.413C78.4756 247.945 80.4908 248.505 82.9259 249.093C85.6688 249.681 88.0199 250.353 90.0072 251.136C91.9944 251.92 93.5058 252.984 94.5974 254.355C95.689 255.727 96.2208 257.519 96.2208 259.842C96.2208 261.606 95.8849 263.145 95.1852 264.433C94.5134 265.72 93.5618 266.812 92.3303 267.68C91.0987 268.548 89.6433 269.191 87.964 269.583C86.2846 270.003 84.4093 270.199 82.3941 270.199C80.4069 270.199 78.5036 270.003 76.6843 269.583C74.865 269.163 73.1576 268.548 71.5343 267.736C69.9109 266.924 68.3995 265.888 67 264.629L68.9033 261.55C69.575 262.277 70.4147 262.949 71.3663 263.565C72.318 264.181 73.3816 264.769 74.5571 265.273C75.7326 265.776 76.9922 266.168 78.3356 266.448C79.6791 266.728 81.0786 266.84 82.534 266.84C85.5849 266.84 87.9919 266.28 89.6993 265.161C91.4066 264.041 92.2743 262.389 92.2743 260.206C92.2743 258.638 91.8545 257.351 90.9868 256.399C90.1191 255.447 88.8316 254.663 87.0963 254.048C85.3609 253.432 83.2338 252.844 80.7147 252.256C78.0558 251.64 75.7886 250.968 73.9693 250.213C72.122 249.457 70.7506 248.449 69.8269 247.217C68.9033 245.986 68.4554 244.334 68.4554 242.291C68.4554 239.911 69.0432 237.924 70.2188 236.272C71.3943 234.649 72.9897 233.389 75.0609 232.549C77.1041 231.71 79.4832 231.29 82.1422 231.29C83.8215 231.29 85.4169 231.458 86.8724 231.794C88.3278 232.13 89.6713 232.633 90.9308 233.277C92.1623 233.921 93.3379 234.733 94.4295 235.713L92.4702 238.764Z" fill="#1C2619"/>
<path d="M118.444 270.199C115.422 270.199 112.875 269.667 110.775 268.576C108.676 267.484 107.025 266.056 105.793 264.237C104.562 262.417 103.666 260.346 103.106 258.05C102.547 255.755 102.267 253.376 102.267 250.912V231.57H105.989V250.912C105.989 252.9 106.185 254.831 106.605 256.735C107.025 258.638 107.697 260.346 108.62 261.857C109.544 263.369 110.831 264.573 112.399 265.441C113.994 266.336 115.953 266.756 118.332 266.756C120.795 266.756 122.811 266.308 124.406 265.385C126.001 264.461 127.261 263.257 128.185 261.745C129.108 260.234 129.752 258.526 130.144 256.651C130.536 254.747 130.732 252.844 130.732 250.884V231.542H134.51V250.884C134.51 253.432 134.23 255.895 133.643 258.218C133.055 260.57 132.131 262.613 130.872 264.377C129.612 266.14 127.933 267.54 125.862 268.576C123.902 269.695 121.411 270.199 118.444 270.199Z" fill="#1C2619"/>
<path d="M166.054 238.764C165.522 238.148 164.879 237.616 164.151 237.112C163.423 236.636 162.612 236.216 161.716 235.852C160.82 235.489 159.841 235.209 158.833 234.985C157.797 234.761 156.706 234.649 155.558 234.649C152.2 234.649 149.764 235.293 148.197 236.552C146.63 237.812 145.846 239.575 145.846 241.759C145.846 243.27 146.21 244.446 146.966 245.314C147.721 246.182 148.869 246.882 150.464 247.413C152.06 247.945 154.075 248.505 156.51 249.093C159.253 249.681 161.604 250.353 163.591 251.136C165.578 251.92 167.09 252.984 168.181 254.355C169.273 255.727 169.805 257.519 169.805 259.842C169.805 261.606 169.469 263.145 168.769 264.433C168.097 265.72 167.146 266.812 165.914 267.68C164.683 268.548 163.227 269.191 161.548 269.583C159.869 270.003 157.993 270.199 155.978 270.199C153.991 270.199 152.088 270.003 150.268 269.583C148.449 269.163 146.742 268.548 145.118 267.736C143.495 266.924 141.983 265.888 140.584 264.629L142.487 261.55C143.159 262.277 143.999 262.949 144.95 263.565C145.902 264.181 146.966 264.769 148.141 265.273C149.317 265.776 150.576 266.168 151.92 266.448C153.263 266.728 154.663 266.84 156.118 266.84C159.169 266.84 161.576 266.28 163.283 265.161C164.991 264.041 165.858 262.389 165.858 260.206C165.858 258.638 165.438 257.351 164.571 256.399C163.703 255.447 162.416 254.663 160.68 254.048C158.945 253.432 156.818 252.844 154.299 252.256C151.64 251.64 149.373 250.968 147.553 250.213C145.706 249.457 144.335 248.449 143.411 247.217C142.487 245.986 142.039 244.334 142.039 242.291C142.039 239.911 142.627 237.924 143.803 236.272C144.978 234.649 146.574 233.389 148.645 232.549C150.688 231.71 153.067 231.29 155.726 231.29C157.406 231.29 159.001 231.458 160.456 231.794C161.912 232.13 163.255 232.633 164.515 233.277C165.746 233.921 166.922 234.733 168.013 235.713L166.054 238.764Z" fill="#1C2619"/>
<path d="M203.587 234.929H189.929V269.947H186.15V234.929H172.463V231.57H203.587V234.929Z" fill="#1C2619"/>
<path d="M235.076 266.588V269.947H209.298V231.598H234.572V234.957H213.076V248.785H231.829V251.976H213.076V266.616H235.076V266.588Z" fill="#1C2619"/>
<path d="M245.991 238.54V269.919H242.213V231.57H245.348L270.51 263.537V231.598H274.289V269.891H270.79L245.991 238.54Z" fill="#1C2619"/>
<path d="M311.122 234.929H297.464V269.947H293.685V234.929H280.026V231.57H311.15V234.929H311.122Z" fill="#1C2619"/>
<path d="M325.061 231.598H328.252L344.178 269.947H340.175L335.389 257.967H317.868L313.082 269.947H309.023L325.061 231.598ZM334.214 254.971L326.629 236.02L319.044 254.971H334.214ZM327.916 226.335L325.481 225.411L328.672 220.401H332.562L327.916 226.335Z" fill="#1C2619"/>
<path d="M346.361 231.598L360.075 265.245L373.734 231.598H377.681L361.811 269.947H358.34L342.414 231.598H346.361Z" fill="#1C2619"/>
<path d="M408.945 266.588V269.947H383.167V231.598H408.441V234.957H386.945V248.785H405.698V251.976H386.945V266.616H408.945V266.588Z" fill="#1C2619"/>
<path d="M416.082 269.947V231.598H419.861V266.616H442V269.975H416.082V269.947Z" fill="#1C2619"/>
</svg>
