<svg width="279" height="279" viewBox="0 0 279 279" fill="none" xmlns="http://www.w3.org/2000/svg">
<g filter="url(#filter0_d_628_606)">
<path d="M275 135.5C275 210.335 214.335 271 139.5 271C64.6654 271 4 210.335 4 135.5C4 60.6654 64.6654 0 139.5 0C214.335 0 275 60.6654 275 135.5ZM54.4737 135.5C54.4737 182.459 92.5413 220.526 139.5 220.526C186.459 220.526 224.526 182.459 224.526 135.5C224.526 88.5413 186.459 50.4737 139.5 50.4737C92.5413 50.4737 54.4737 88.5413 54.4737 135.5Z" fill="#D9D9D9"/>
</g>
<path d="M275 135.5C275 210.335 214.335 271 139.5 271C64.6654 271 4 210.335 4 135.5C4 60.6654 64.6654 0 139.5 0C214.335 0 275 60.6654 275 135.5ZM54.4737 135.5C54.4737 182.459 92.5413 220.526 139.5 220.526C186.459 220.526 224.526 182.459 224.526 135.5C224.526 88.5413 186.459 50.4737 139.5 50.4737C92.5413 50.4737 54.4737 88.5413 54.4737 135.5Z" fill="#38C446"/>
<path d="M139.5 0C119.536 -2.3807e-07 99.8183 4.41155 81.7576 12.9191C63.6969 21.4267 47.7393 33.8202 35.026 49.213C22.3128 64.6059 13.158 82.6179 8.21643 101.961C3.27487 121.304 2.66864 141.5 6.44109 161.104C10.2135 180.709 18.2714 199.237 30.0385 215.365C41.8056 231.493 56.9911 244.821 74.509 254.397C92.0269 263.972 111.444 269.559 131.373 270.756C151.301 271.954 171.247 268.733 189.786 261.324L171.054 214.454C159.421 219.103 146.905 221.125 134.4 220.373C121.895 219.622 109.711 216.116 98.7182 210.108C87.7257 204.099 78.1968 195.736 70.8129 185.615C63.4291 175.495 58.3727 163.868 56.0055 151.567C53.6383 139.265 54.0187 126.592 57.1196 114.454C60.2204 102.316 65.965 91.014 73.9426 81.3549C81.9202 71.6959 91.9336 63.919 103.267 58.5805C114.6 53.242 126.972 50.4737 139.5 50.4737V0Z" fill="#C1741B"/>
<path d="M139.5 0C118.999 -2.4447e-07 98.7656 4.65183 80.3232 13.6051C61.8809 22.5584 45.7105 35.5797 33.03 51.6884L72.6901 82.9082C80.6471 72.8 90.794 64.6292 102.367 59.011C113.939 53.3928 126.636 50.4737 139.5 50.4737V0Z" fill="#3F54C6"/>
<defs>
<filter id="filter0_d_628_606" x="0" y="0" width="279" height="279" filterUnits="userSpaceOnUse" color-interpolation-filters="sRGB">
<feFlood flood-opacity="0" result="BackgroundImageFix"/>
<feColorMatrix in="SourceAlpha" type="matrix" values="0 0 0 0 0 0 0 0 0 0 0 0 0 0 0 0 0 0 127 0" result="hardAlpha"/>
<feOffset dy="4"/>
<feGaussianBlur stdDeviation="2"/>
<feComposite in2="hardAlpha" operator="out"/>
<feColorMatrix type="matrix" values="0 0 0 0 0 0 0 0 0 0 0 0 0 0 0 0 0 0 0.25 0"/>
<feBlend mode="normal" in2="BackgroundImageFix" result="effect1_dropShadow_628_606"/>
<feBlend mode="normal" in="SourceGraphic" in2="effect1_dropShadow_628_606" result="shape"/>
</filter>
</defs>
</svg>
