<svg width="1727" height="1115" viewBox="0 0 1727 1115" fill="none" xmlns="http://www.w3.org/2000/svg">
<g style="mix-blend-mode:overlay" opacity="0.15">
<rect x="0.5" y="0.5" width="106.887" height="106.887" stroke="white" stroke-dasharray="9 9"/>
<rect x="0.5" y="108.387" width="106.887" height="106.887" stroke="white" stroke-dasharray="9 9"/>
<rect x="0.5" y="216.274" width="106.887" height="106.887" stroke="white" stroke-dasharray="9 9"/>
<rect x="0.5" y="324.161" width="106.887" height="106.887" stroke="white" stroke-dasharray="9 9"/>
<rect x="0.5" y="432.048" width="106.887" height="106.887" stroke="white" stroke-dasharray="9 9"/>
<rect x="0.5" y="539.935" width="106.887" height="106.887" stroke="white" stroke-dasharray="9 9"/>
<rect x="0.5" y="647.823" width="106.887" height="106.887" stroke="white" stroke-dasharray="9 9"/>
<rect x="108.387" y="0.5" width="106.263" height="106.887" stroke="white" stroke-dasharray="9 9"/>
<rect x="108.387" y="108.387" width="106.263" height="106.887" stroke="white" stroke-dasharray="9 9"/>
<rect x="108.387" y="216.274" width="106.263" height="106.887" stroke="white" stroke-dasharray="9 9"/>
<rect x="108.387" y="324.161" width="106.263" height="106.887" stroke="white" stroke-dasharray="9 9"/>
<rect x="108.387" y="432.048" width="106.263" height="106.887" stroke="white" stroke-dasharray="9 9"/>
<rect x="108.387" y="539.935" width="106.263" height="106.887" stroke="white" stroke-dasharray="9 9"/>
<rect x="108.387" y="647.823" width="106.263" height="106.887" stroke="white" stroke-dasharray="9 9"/>
<rect x="215.651" y="0.5" width="106.887" height="106.887" stroke="white" stroke-dasharray="9 9"/>
<rect x="215.651" y="108.387" width="106.887" height="106.887" stroke="white" stroke-dasharray="9 9"/>
<rect x="215.651" y="216.274" width="106.887" height="106.887" stroke="white" stroke-dasharray="9 9"/>
<rect x="215.651" y="324.161" width="106.887" height="106.887" stroke="white" stroke-dasharray="9 9"/>
<rect x="215.651" y="432.048" width="106.887" height="106.887" stroke="white" stroke-dasharray="9 9"/>
<rect x="215.651" y="539.935" width="106.887" height="106.887" stroke="white" stroke-dasharray="9 9"/>
<rect x="215.651" y="647.823" width="106.887" height="106.887" stroke="white" stroke-dasharray="9 9"/>
<rect x="323.538" y="0.5" width="106.887" height="106.887" stroke="white" stroke-dasharray="9 9"/>
<rect x="323.538" y="108.387" width="106.887" height="106.887" stroke="white" stroke-dasharray="9 9"/>
<rect x="323.538" y="216.274" width="106.887" height="106.887" stroke="white" stroke-dasharray="9 9"/>
<rect x="323.538" y="324.161" width="106.887" height="106.887" stroke="white" stroke-dasharray="9 9"/>
<rect x="323.538" y="432.048" width="106.887" height="106.887" stroke="white" stroke-dasharray="9 9"/>
<rect x="323.538" y="539.935" width="106.887" height="106.887" stroke="white" stroke-dasharray="9 9"/>
<rect x="323.538" y="647.823" width="106.887" height="106.887" stroke="white" stroke-dasharray="9 9"/>
<rect x="431.425" y="0.5" width="106.263" height="106.887" stroke="white" stroke-dasharray="9 9"/>
<rect x="431.425" y="108.387" width="106.263" height="106.887" stroke="white" stroke-dasharray="9 9"/>
<rect x="431.425" y="216.274" width="106.263" height="106.887" stroke="white" stroke-dasharray="9 9"/>
<rect x="431.425" y="324.161" width="106.263" height="106.887" stroke="white" stroke-dasharray="9 9"/>
<rect x="431.425" y="432.048" width="106.263" height="106.887" stroke="white" stroke-dasharray="9 9"/>
<rect x="431.425" y="539.935" width="106.263" height="106.887" stroke="white" stroke-dasharray="9 9"/>
<rect x="431.425" y="647.823" width="106.263" height="106.887" stroke="white" stroke-dasharray="9 9"/>
<rect x="538.688" y="0.5" width="106.263" height="106.887" stroke="white" stroke-dasharray="9 9"/>
<rect x="538.688" y="108.387" width="106.263" height="106.887" stroke="white" stroke-dasharray="9 9"/>
<rect x="538.688" y="216.274" width="106.263" height="106.887" stroke="white" stroke-dasharray="9 9"/>
<rect x="538.688" y="324.161" width="106.263" height="106.887" stroke="white" stroke-dasharray="9 9"/>
<rect x="538.688" y="432.048" width="106.263" height="106.887" stroke="white" stroke-dasharray="9 9"/>
<rect x="538.688" y="539.935" width="106.263" height="106.887" stroke="white" stroke-dasharray="9 9"/>
<rect x="538.688" y="647.823" width="106.263" height="106.887" stroke="white" stroke-dasharray="9 9"/>
<rect x="645.952" y="0.5" width="106.887" height="106.887" stroke="white" stroke-dasharray="9 9"/>
<rect x="645.952" y="108.387" width="106.887" height="106.887" stroke="white" stroke-dasharray="9 9"/>
<rect x="645.952" y="216.274" width="106.887" height="106.887" stroke="white" stroke-dasharray="9 9"/>
<rect x="645.952" y="324.161" width="106.887" height="106.887" stroke="white" stroke-dasharray="9 9"/>
<rect x="645.952" y="432.048" width="106.887" height="106.887" stroke="white" stroke-dasharray="9 9"/>
<rect x="645.952" y="539.935" width="106.887" height="106.887" stroke="white" stroke-dasharray="9 9"/>
<rect x="645.952" y="647.823" width="106.887" height="106.887" stroke="white" stroke-dasharray="9 9"/>
<rect x="753.839" y="0.5" width="106.887" height="106.887" stroke="white" stroke-dasharray="9 9"/>
<rect x="753.839" y="108.387" width="106.887" height="106.887" stroke="white" stroke-dasharray="9 9"/>
<rect x="753.839" y="216.274" width="106.887" height="106.887" stroke="white" stroke-dasharray="9 9"/>
<rect x="753.839" y="324.161" width="106.887" height="106.887" stroke="white" stroke-dasharray="9 9"/>
<rect x="753.839" y="432.048" width="106.887" height="106.887" stroke="white" stroke-dasharray="9 9"/>
<rect x="753.839" y="539.935" width="106.887" height="106.887" stroke="white" stroke-dasharray="9 9"/>
<rect x="753.839" y="647.823" width="106.887" height="106.887" stroke="white" stroke-dasharray="9 9"/>
<rect x="861.726" y="0.5" width="106.263" height="106.887" stroke="white" stroke-dasharray="9 9"/>
<rect x="861.726" y="108.387" width="106.263" height="106.887" stroke="white" stroke-dasharray="9 9"/>
<rect x="861.726" y="216.274" width="106.263" height="106.887" stroke="white" stroke-dasharray="9 9"/>
<rect x="861.726" y="324.161" width="106.263" height="106.887" stroke="white" stroke-dasharray="9 9"/>
<rect x="861.726" y="432.048" width="106.263" height="106.887" stroke="white" stroke-dasharray="9 9"/>
<rect x="861.726" y="539.935" width="106.263" height="106.887" stroke="white" stroke-dasharray="9 9"/>
<rect x="861.726" y="647.823" width="106.263" height="106.887" stroke="white" stroke-dasharray="9 9"/>
<rect x="968.989" y="0.5" width="106.887" height="106.887" stroke="white" stroke-dasharray="9 9"/>
<rect x="1076.5" y="0.5" width="106.887" height="106.887" stroke="white" stroke-dasharray="9 9"/>
<rect x="1184.01" y="0.5" width="106.887" height="106.887" stroke="white" stroke-dasharray="9 9"/>
<rect x="1291.52" y="0.5" width="106.887" height="106.887" stroke="white" stroke-dasharray="9 9"/>
<rect x="1399.03" y="0.5" width="106.887" height="106.887" stroke="white" stroke-dasharray="9 9"/>
<rect x="1506.54" y="0.5" width="106.887" height="106.887" stroke="white" stroke-dasharray="9 9"/>
<rect x="1614.05" y="0.5" width="106.887" height="106.887" stroke="white" stroke-dasharray="9 9"/>
<rect x="1721.56" y="0.5" width="106.887" height="106.887" stroke="white" stroke-dasharray="9 9"/>
<rect x="968.989" y="108.387" width="106.887" height="106.887" stroke="white" stroke-dasharray="9 9"/>
<rect x="1076.5" y="108.387" width="106.887" height="106.887" stroke="white" stroke-dasharray="9 9"/>
<rect x="1184.01" y="108.387" width="106.887" height="106.887" stroke="white" stroke-dasharray="9 9"/>
<rect x="1291.52" y="108.387" width="106.887" height="106.887" stroke="white" stroke-dasharray="9 9"/>
<rect x="1399.03" y="108.387" width="106.887" height="106.887" stroke="white" stroke-dasharray="9 9"/>
<rect x="1506.54" y="108.387" width="106.887" height="106.887" stroke="white" stroke-dasharray="9 9"/>
<rect x="1614.05" y="108.387" width="106.887" height="106.887" stroke="white" stroke-dasharray="9 9"/>
<rect x="1721.56" y="108.387" width="106.887" height="106.887" stroke="white" stroke-dasharray="9 9"/>
<rect x="968.989" y="216.274" width="106.887" height="106.887" stroke="white" stroke-dasharray="9 9"/>
<rect x="1076.5" y="216.274" width="106.887" height="106.887" stroke="white" stroke-dasharray="9 9"/>
<rect x="1184.01" y="216.274" width="106.887" height="106.887" stroke="white" stroke-dasharray="9 9"/>
<rect x="1291.52" y="216.274" width="106.887" height="106.887" stroke="white" stroke-dasharray="9 9"/>
<rect x="1399.03" y="216.274" width="106.887" height="106.887" stroke="white" stroke-dasharray="9 9"/>
<rect x="1506.54" y="216.274" width="106.887" height="106.887" stroke="white" stroke-dasharray="9 9"/>
<rect x="1614.05" y="216.274" width="106.887" height="106.887" stroke="white" stroke-dasharray="9 9"/>
<rect x="1721.56" y="216.274" width="106.887" height="106.887" stroke="white" stroke-dasharray="9 9"/>
<rect x="968.989" y="324.161" width="106.887" height="106.887" stroke="white" stroke-dasharray="9 9"/>
<rect x="1076.5" y="324.161" width="106.887" height="106.887" stroke="white" stroke-dasharray="9 9"/>
<rect x="1184.01" y="324.161" width="106.887" height="106.887" stroke="white" stroke-dasharray="9 9"/>
<rect x="1291.52" y="324.161" width="106.887" height="106.887" stroke="white" stroke-dasharray="9 9"/>
<rect x="1399.03" y="324.161" width="106.887" height="106.887" stroke="white" stroke-dasharray="9 9"/>
<rect x="1506.54" y="324.161" width="106.887" height="106.887" stroke="white" stroke-dasharray="9 9"/>
<rect x="1614.05" y="324.161" width="106.887" height="106.887" stroke="white" stroke-dasharray="9 9"/>
<rect x="1721.56" y="324.161" width="106.887" height="106.887" stroke="white" stroke-dasharray="9 9"/>
<rect x="968.989" y="432.048" width="106.887" height="106.887" stroke="white" stroke-dasharray="9 9"/>
<rect x="1076.5" y="432.048" width="106.887" height="106.887" stroke="white" stroke-dasharray="9 9"/>
<rect x="1184.01" y="432.048" width="106.887" height="106.887" stroke="white" stroke-dasharray="9 9"/>
<rect x="1291.52" y="432.048" width="106.887" height="106.887" stroke="white" stroke-dasharray="9 9"/>
<rect x="1399.03" y="432.048" width="106.887" height="106.887" stroke="white" stroke-dasharray="9 9"/>
<rect x="1506.54" y="432.048" width="106.887" height="106.887" stroke="white" stroke-dasharray="9 9"/>
<rect x="1614.05" y="432.048" width="106.887" height="106.887" stroke="white" stroke-dasharray="9 9"/>
<rect x="1721.56" y="432.048" width="106.887" height="106.887" stroke="white" stroke-dasharray="9 9"/>
<rect x="968.989" y="539.935" width="106.887" height="106.887" stroke="white" stroke-dasharray="9 9"/>
<rect x="1076.5" y="539.935" width="106.887" height="106.887" stroke="white" stroke-dasharray="9 9"/>
<rect x="1184.01" y="539.935" width="106.887" height="106.887" stroke="white" stroke-dasharray="9 9"/>
<rect x="1291.52" y="539.935" width="106.887" height="106.887" stroke="white" stroke-dasharray="9 9"/>
<rect x="1399.03" y="539.935" width="106.887" height="106.887" stroke="white" stroke-dasharray="9 9"/>
<rect x="1506.54" y="539.935" width="106.887" height="106.887" stroke="white" stroke-dasharray="9 9"/>
<rect x="1614.05" y="539.935" width="106.887" height="106.887" stroke="white" stroke-dasharray="9 9"/>
<rect x="1721.56" y="539.935" width="106.887" height="106.887" stroke="white" stroke-dasharray="9 9"/>
<rect x="968.989" y="647.823" width="106.887" height="106.887" stroke="white" stroke-dasharray="9 9"/>
<rect x="1076.5" y="647.823" width="106.887" height="106.887" stroke="white" stroke-dasharray="9 9"/>
<rect x="1184.01" y="647.823" width="106.887" height="106.887" stroke="white" stroke-dasharray="9 9"/>
<rect x="1291.52" y="647.823" width="106.887" height="106.887" stroke="white" stroke-dasharray="9 9"/>
<rect x="1399.03" y="647.823" width="106.887" height="106.887" stroke="white" stroke-dasharray="9 9"/>
<rect x="1506.54" y="647.823" width="106.887" height="106.887" stroke="white" stroke-dasharray="9 9"/>
<rect x="1614.05" y="647.823" width="106.887" height="106.887" stroke="white" stroke-dasharray="9 9"/>
<rect x="1721.56" y="647.823" width="106.887" height="106.887" stroke="white" stroke-dasharray="9 9"/>
</g>
<g style="mix-blend-mode:overlay" opacity="0.15">
<rect x="0.5" y="755.5" width="106.887" height="106.887" stroke="white" stroke-dasharray="9 9"/>
<rect x="0.5" y="863.387" width="106.887" height="106.887" stroke="white" stroke-dasharray="9 9"/>
<rect x="0.5" y="971.274" width="106.887" height="106.887" stroke="white" stroke-dasharray="9 9"/>
<rect x="0.5" y="1079.16" width="106.887" height="106.887" stroke="white" stroke-dasharray="9 9"/>
<rect x="108.387" y="755.5" width="106.263" height="106.887" stroke="white" stroke-dasharray="9 9"/>
<rect x="108.387" y="863.387" width="106.263" height="106.887" stroke="white" stroke-dasharray="9 9"/>
<rect x="108.387" y="971.274" width="106.263" height="106.887" stroke="white" stroke-dasharray="9 9"/>
<rect x="108.387" y="1079.16" width="106.263" height="106.887" stroke="white" stroke-dasharray="9 9"/>
<rect x="215.651" y="755.5" width="106.887" height="106.887" stroke="white" stroke-dasharray="9 9"/>
<rect x="215.651" y="863.387" width="106.887" height="106.887" stroke="white" stroke-dasharray="9 9"/>
<rect x="215.651" y="971.274" width="106.887" height="106.887" stroke="white" stroke-dasharray="9 9"/>
<rect x="215.651" y="1079.16" width="106.887" height="106.887" stroke="white" stroke-dasharray="9 9"/>
<rect x="323.538" y="755.5" width="106.887" height="106.887" stroke="white" stroke-dasharray="9 9"/>
<rect x="323.538" y="863.387" width="106.887" height="106.887" stroke="white" stroke-dasharray="9 9"/>
<rect x="323.538" y="971.274" width="106.887" height="106.887" stroke="white" stroke-dasharray="9 9"/>
<rect x="323.538" y="1079.16" width="106.887" height="106.887" stroke="white" stroke-dasharray="9 9"/>
<rect x="431.425" y="755.5" width="106.263" height="106.887" stroke="white" stroke-dasharray="9 9"/>
<rect x="431.425" y="863.387" width="106.263" height="106.887" stroke="white" stroke-dasharray="9 9"/>
<rect x="431.425" y="971.274" width="106.263" height="106.887" stroke="white" stroke-dasharray="9 9"/>
<rect x="431.425" y="1079.16" width="106.263" height="106.887" stroke="white" stroke-dasharray="9 9"/>
<rect x="538.688" y="755.5" width="106.263" height="106.887" stroke="white" stroke-dasharray="9 9"/>
<rect x="538.688" y="863.387" width="106.263" height="106.887" stroke="white" stroke-dasharray="9 9"/>
<rect x="538.688" y="971.274" width="106.263" height="106.887" stroke="white" stroke-dasharray="9 9"/>
<rect x="538.688" y="1079.16" width="106.263" height="106.887" stroke="white" stroke-dasharray="9 9"/>
<rect x="645.952" y="755.5" width="106.887" height="106.887" stroke="white" stroke-dasharray="9 9"/>
<rect x="645.952" y="863.387" width="106.887" height="106.887" stroke="white" stroke-dasharray="9 9"/>
<rect x="645.952" y="971.274" width="106.887" height="106.887" stroke="white" stroke-dasharray="9 9"/>
<rect x="645.952" y="1079.16" width="106.887" height="106.887" stroke="white" stroke-dasharray="9 9"/>
<rect x="753.839" y="755.5" width="106.887" height="106.887" stroke="white" stroke-dasharray="9 9"/>
<rect x="753.839" y="863.387" width="106.887" height="106.887" stroke="white" stroke-dasharray="9 9"/>
<rect x="753.839" y="971.274" width="106.887" height="106.887" stroke="white" stroke-dasharray="9 9"/>
<rect x="753.839" y="1079.16" width="106.887" height="106.887" stroke="white" stroke-dasharray="9 9"/>
<rect x="861.726" y="755.5" width="106.263" height="106.887" stroke="white" stroke-dasharray="9 9"/>
<rect x="861.726" y="863.387" width="106.263" height="106.887" stroke="white" stroke-dasharray="9 9"/>
<rect x="861.726" y="971.274" width="106.263" height="106.887" stroke="white" stroke-dasharray="9 9"/>
<rect x="861.726" y="1079.16" width="106.263" height="106.887" stroke="white" stroke-dasharray="9 9"/>
<rect x="968.989" y="755.5" width="106.887" height="106.887" stroke="white" stroke-dasharray="9 9"/>
<rect x="1076.5" y="755.5" width="106.887" height="106.887" stroke="white" stroke-dasharray="9 9"/>
<rect x="1184.01" y="755.5" width="106.887" height="106.887" stroke="white" stroke-dasharray="9 9"/>
<rect x="1291.52" y="755.5" width="106.887" height="106.887" stroke="white" stroke-dasharray="9 9"/>
<rect x="1399.03" y="755.5" width="106.887" height="106.887" stroke="white" stroke-dasharray="9 9"/>
<rect x="1506.54" y="755.5" width="106.887" height="106.887" stroke="white" stroke-dasharray="9 9"/>
<rect x="1614.05" y="755.5" width="106.887" height="106.887" stroke="white" stroke-dasharray="9 9"/>
<rect x="1721.56" y="755.5" width="106.887" height="106.887" stroke="white" stroke-dasharray="9 9"/>
<rect x="968.989" y="863.387" width="106.887" height="106.887" stroke="white" stroke-dasharray="9 9"/>
<rect x="1076.5" y="863.387" width="106.887" height="106.887" stroke="white" stroke-dasharray="9 9"/>
<rect x="1184.01" y="863.387" width="106.887" height="106.887" stroke="white" stroke-dasharray="9 9"/>
<rect x="1291.52" y="863.387" width="106.887" height="106.887" stroke="white" stroke-dasharray="9 9"/>
<rect x="1399.03" y="863.387" width="106.887" height="106.887" stroke="white" stroke-dasharray="9 9"/>
<rect x="1506.54" y="863.387" width="106.887" height="106.887" stroke="white" stroke-dasharray="9 9"/>
<rect x="1614.05" y="863.387" width="106.887" height="106.887" stroke="white" stroke-dasharray="9 9"/>
<rect x="1721.56" y="863.387" width="106.887" height="106.887" stroke="white" stroke-dasharray="9 9"/>
<rect x="968.989" y="971.274" width="106.887" height="106.887" stroke="white" stroke-dasharray="9 9"/>
<rect x="1076.5" y="971.274" width="106.887" height="106.887" stroke="white" stroke-dasharray="9 9"/>
<rect x="1184.01" y="971.274" width="106.887" height="106.887" stroke="white" stroke-dasharray="9 9"/>
<rect x="1291.52" y="971.274" width="106.887" height="106.887" stroke="white" stroke-dasharray="9 9"/>
<rect x="1399.03" y="971.274" width="106.887" height="106.887" stroke="white" stroke-dasharray="9 9"/>
<rect x="1506.54" y="971.274" width="106.887" height="106.887" stroke="white" stroke-dasharray="9 9"/>
<rect x="1614.05" y="971.274" width="106.887" height="106.887" stroke="white" stroke-dasharray="9 9"/>
<rect x="1721.56" y="971.274" width="106.887" height="106.887" stroke="white" stroke-dasharray="9 9"/>
<rect x="968.989" y="1079.16" width="106.887" height="106.887" stroke="white" stroke-dasharray="9 9"/>
<rect x="1076.5" y="1079.16" width="106.887" height="106.887" stroke="white" stroke-dasharray="9 9"/>
<rect x="1184.01" y="1079.16" width="106.887" height="106.887" stroke="white" stroke-dasharray="9 9"/>
<rect x="1291.52" y="1079.16" width="106.887" height="106.887" stroke="white" stroke-dasharray="9 9"/>
<rect x="1399.03" y="1079.16" width="106.887" height="106.887" stroke="white" stroke-dasharray="9 9"/>
<rect x="1506.54" y="1079.16" width="106.887" height="106.887" stroke="white" stroke-dasharray="9 9"/>
<rect x="1614.05" y="1079.16" width="106.887" height="106.887" stroke="white" stroke-dasharray="9 9"/>
<rect x="1721.56" y="1079.16" width="106.887" height="106.887" stroke="white" stroke-dasharray="9 9"/>
</g>
</svg>
