<svg width="50" height="53" viewBox="0 0 50 53" fill="none" xmlns="http://www.w3.org/2000/svg">
<path d="M44.3106 23.938C48.2909 20.7774 51.1174 14.7914 46.9285 14.3604C42.4066 9.71559 37.9824 11.3918 37.0273 12.0142M44.5653 23.7294C44.5653 31.0233 42.8825 37.8041 38.027 36.926C38.027 38.4959 32.4574 38.2948 33.5045 43.5717M29.4585 49.6055C31.1242 48.4085 32.9076 45.237 33.5045 43.2631M29.6961 49.3181C29.6961 50.8007 29.0997 52 28.3628 52C27.7448 49.1027 25.6975 48.5522 22.5083 46.2053M25.9831 39.5969C25.9831 38.4327 25.4084 37.4903 24.6978 37.4903M22.8242 46.434C24.3951 42.6989 27.6876 42.4701 25.9739 39.3579M25.0388 37.5673C25.0388 36.4657 23.3965 35.5744 21.3658 35.5744M21.6526 35.5819C21.6526 34.0471 21.1956 32.7972 20.9848 32.7972M21.1859 33.0317C21.1859 31.2049 22.5083 30.4986 20.3661 29.2057M5.37124 13.4025C3.37135 13.4025 -0.674696 14.3604 1.75305 19.3885C2.89552 20.4941 2.6099 21.0648 4.84742 20.0591C3.30052 21.8003 8.56044 22.7887 8.94146 20.5809M8.89804 20.755C10.6552 19.3891 11.893 19.3891 11.3692 22.31M11.4395 21.8532C11.4395 23.6144 14.439 25.0395 17.5574 25.0395M17.3432 25.0395C17.3432 26.6014 17.5071 27.8651 18.0332 27.8651C18.0332 28.7644 20.9779 27.5777 20.3661 29.493M31.648 14.3604C30.3153 8.23071 34.5042 8.80535 37.0273 10.6252M37.0273 12.3974V10.3862M31.5886 14.0662C28.9821 10.9126 32.5557 9.18864 31.8417 8.5663M32.3621 8.5663C30.1759 8.5663 28.4063 9.04096 28.4063 9.62767C28.4063 7.69113 30.3839 7.22566 30.6232 6.12408C29.19 6.12408 29.515 3.58589 28.0304 2.19755M8.46562 5.40578C9.79831 8.80593 13.9398 5.21327 13.9398 4.97479C12.9144 4.97479 12.0844 3.85999 12.0844 2.48257M11.7976 2.4843C15.0542 2.4843 17.6888 1.82059 17.6888 1C17.6888 3.03768 16.7959 9.0967 23.1749 4.68747C29.9343 6.45909 25.7226 2.48487 28.4063 2.48487M5.08563 13.4117C7.98921 11.0085 5.21358 7.46529 5.37124 7.46529C5.37124 6.89869 8.61357 7.17739 5.75112 5.91778L8.58615 5.67758" stroke="white" stroke-width="2" stroke-miterlimit="10"/>
</svg>
